<svg width="25" height="25" viewBox="0 0 25 25" fill="none" xmlns="http://www.w3.org/2000/svg">
<path d="M1.23396 20.2778V17.4389C1.23396 16.8644 1.38026 16.3363 1.67287 15.8547C1.96547 15.3731 2.35421 15.0056 2.83909 14.7521C3.87574 14.2282 4.9291 13.8354 5.99919 13.5734C7.06927 13.3115 8.15608 13.1806 9.2596 13.1806C10.3631 13.1806 11.4499 13.3115 12.52 13.5734C13.5901 13.8354 14.6435 14.2282 15.6801 14.7521C16.165 15.0056 16.5537 15.3731 16.8463 15.8547C17.1389 16.3363 17.2852 16.8644 17.2852 17.4389V20.2778H1.23396ZM19.2917 20.2778V17.2361C19.2917 16.4926 19.0868 15.7786 18.6772 15.0943C18.2675 14.4099 17.6865 13.8227 16.9341 13.3326C17.7868 13.434 18.5894 13.6072 19.3418 13.8523C20.0942 14.0973 20.7965 14.3972 21.4485 14.7521C22.0505 15.09 22.5103 15.466 22.828 15.88C23.1456 16.294 23.3045 16.7461 23.3045 17.2361V20.2778H19.2917ZM9.2596 12.1667C8.15608 12.1667 7.21139 11.7696 6.42555 10.9753C5.63971 10.1811 5.24678 9.22639 5.24678 8.11111C5.24678 6.99584 5.63971 6.04109 6.42555 5.24688C7.21139 4.45266 8.15608 4.05556 9.2596 4.05556C10.3631 4.05556 11.3078 4.45266 12.0937 5.24688C12.8795 6.04109 13.2724 6.99584 13.2724 8.11111C13.2724 9.22639 12.8795 10.1811 12.0937 10.9753C11.3078 11.7696 10.3631 12.1667 9.2596 12.1667ZM19.2917 8.11111C19.2917 9.22639 18.8987 10.1811 18.1129 10.9753C17.327 11.7696 16.3824 12.1667 15.2788 12.1667C15.0949 12.1667 14.8608 12.1455 14.5766 12.1033C14.2923 12.0611 14.0583 12.0146 13.8743 11.9639C14.3258 11.4232 14.6727 10.8233 14.9152 10.1642C15.1576 9.50521 15.2788 8.82084 15.2788 8.11111C15.2788 7.40139 15.1576 6.71702 14.9152 6.05799C14.6727 5.39896 14.3258 4.79908 13.8743 4.25834C14.1084 4.17384 14.3425 4.11893 14.5766 4.09358C14.8107 4.06823 15.0448 4.05556 15.2788 4.05556C16.3824 4.05556 17.327 4.45266 18.1129 5.24688C18.8987 6.04109 19.2917 6.99584 19.2917 8.11111ZM3.24037 18.25H15.2788V17.4389C15.2788 17.253 15.2329 17.084 15.1409 16.9319C15.0489 16.7799 14.9277 16.6616 14.7772 16.5771C13.8743 16.1208 12.9631 15.7786 12.0435 15.5505C11.1239 15.3224 10.1959 15.2083 9.2596 15.2083C8.32328 15.2083 7.39531 15.3224 6.47571 15.5505C5.5561 15.7786 4.64486 16.1208 3.74198 16.5771C3.59149 16.6616 3.47027 16.7799 3.37831 16.9319C3.28635 17.084 3.24037 17.253 3.24037 17.4389V18.25ZM9.2596 10.1389C9.81137 10.1389 10.2837 9.94034 10.6766 9.54323C11.0696 9.14612 11.266 8.66875 11.266 8.11111C11.266 7.55347 11.0696 7.0761 10.6766 6.67899C10.2837 6.28189 9.81137 6.08334 9.2596 6.08334C8.70784 6.08334 8.2355 6.28189 7.84258 6.67899C7.44965 7.0761 7.25319 7.55347 7.25319 8.11111C7.25319 8.66875 7.44965 9.14612 7.84258 9.54323C8.2355 9.94034 8.70784 10.1389 9.2596 10.1389Z" fill="#36393F"/>
</svg>
