<svg width="113" height="113" viewBox="0 0 113 113" fill="none" xmlns="http://www.w3.org/2000/svg">
<path d="M4.64 0.76H50.42V8.14H4.64V0.76ZM8.78 20.08H45.62V27.4H8.78V20.08ZM1.28 40.42H53.6V47.74H1.28V40.42Z" fill="#8080FF"/>
<path d="M109.64 13.96V21.58H63.08V13.96H70.94V8.62H63.62V0.999996H109.1V8.62H101.78V13.96H109.64ZM81.02 8.62V13.96H91.7V8.62H81.02ZM112.28 31.6H91.4V34.3H109.28V52.24H63.44V34.3H81.32V31.6H60.44V23.92H112.28V31.6ZM99.26 44.8V41.74H73.46V44.8H99.26ZM48.68 72.4H54.56V81.94H48.68V99.82H38.54V61H48.68V72.4ZM22.4 80.92V69.94H2.36V61.36H32.48V80.92H22.4ZM35.6 90.64C32.42 92.02 27.26 92.5 22.16 92.5H0.44V84.04H7.52V74.56H17.54V84.04H22.34C27.08 84.04 32.42 83.56 35.6 82.18V90.64ZM13.7 96.1V103.6H49.4V112.24H3.44V96.1H13.7ZM107.715 61V112.24H97.5748V61H107.715ZM90.1348 62.2V90.4H70.5148V100.72H81.6148C86.4748 100.72 91.7548 99.7 94.8748 98.26V107.38C91.7548 108.94 86.2948 109.84 81.1948 109.84H60.4348V81.4H80.0548V71.32H60.3148V62.2H90.1348Z" fill="#F5F5F5"/>
</svg>
