<svg width="25" height="25" viewBox="0 0 25 25" fill="none" xmlns="http://www.w3.org/2000/svg">
<g clip-path="url(#clip0_173_1401)">
<path d="M19.6088 6.67637C19.4082 6.07818 18.8464 5.65234 18.1843 5.65234H7.14903C6.48692 5.65234 5.93516 6.07818 5.72448 6.67637L3.63782 12.7496V20.8607C3.63782 21.4183 4.08926 21.8746 4.64102 21.8746H5.64423C6.19599 21.8746 6.64743 21.4183 6.64743 20.8607V19.8468H18.6859V20.8607C18.6859 21.4183 19.1373 21.8746 19.6891 21.8746H20.6923C21.2441 21.8746 21.6955 21.4183 21.6955 20.8607V12.7496L19.6088 6.67637ZM7.50016 7.68012H17.8231L18.9066 10.8333H6.4167L7.50016 7.68012ZM19.6891 17.819H5.64423V12.7496H19.6891V17.819Z" fill="#7C7C7C"/>
<path d="M8.15224 16.8053C8.98332 16.8053 9.65705 16.1244 9.65705 15.2845C9.65705 14.4446 8.98332 13.7637 8.15224 13.7637C7.32116 13.7637 6.64743 14.4446 6.64743 15.2845C6.64743 16.1244 7.32116 16.8053 8.15224 16.8053Z" fill="#7C7C7C"/>
<path d="M17.1811 16.8053C18.0122 16.8053 18.6859 16.1244 18.6859 15.2845C18.6859 14.4446 18.0122 13.7637 17.1811 13.7637C16.35 13.7637 15.6763 14.4446 15.6763 15.2845C15.6763 16.1244 16.35 16.8053 17.1811 16.8053Z" fill="#7C7C7C"/>
</g>
<defs>
<clipPath id="clip0_173_1401">
<rect width="24.0769" height="24.3333" fill="white" transform="translate(0.628204 0.583008)"/>
</clipPath>
</defs>
</svg>
