<svg width="26" height="25" viewBox="0 0 26 25" fill="none" xmlns="http://www.w3.org/2000/svg">
<g clip-path="url(#clip0_173_1407)">
<path d="M21.0256 8.69444V6.66667C21.0256 4.99375 19.6713 3.625 18.016 3.625H7.98398C6.32869 3.625 4.97437 4.99375 4.97437 6.66667V8.69444C3.31908 8.69444 1.96475 10.0632 1.96475 11.7361V16.8056C1.96475 18.4785 3.31908 19.8472 4.97437 19.8472V20.8611C4.97437 21.4188 5.42581 21.875 5.97757 21.875C6.52934 21.875 6.98078 21.4188 6.98078 20.8611V19.8472H19.0192V20.8611C19.0192 21.4188 19.4707 21.875 20.0224 21.875C20.5742 21.875 21.0256 21.4188 21.0256 20.8611V19.8472C22.6809 19.8472 24.0353 18.4785 24.0353 16.8056V11.7361C24.0353 10.0632 22.6809 8.69444 21.0256 8.69444ZM6.98078 6.66667C6.98078 6.10903 7.43222 5.65278 7.98398 5.65278H18.016C18.5678 5.65278 19.0192 6.10903 19.0192 6.66667V9.48528C18.4073 10.0429 18.016 10.8439 18.016 11.7361V13.7639H7.98398V11.7361C7.98398 10.8439 7.59273 10.0429 6.98078 9.48528V6.66667ZM22.0289 16.8056C22.0289 17.3632 21.5774 17.8194 21.0256 17.8194H4.97437C4.4226 17.8194 3.97116 17.3632 3.97116 16.8056V11.7361C3.97116 11.1785 4.4226 10.7222 4.97437 10.7222C5.52613 10.7222 5.97757 11.1785 5.97757 11.7361V15.7917H20.0224V11.7361C20.0224 11.1785 20.4739 10.7222 21.0256 10.7222C21.5774 10.7222 22.0289 11.1785 22.0289 11.7361V16.8056Z" fill="#7C7C7C"/>
</g>
<defs>
<clipPath id="clip0_173_1407">
<rect width="24.0769" height="24.3333" fill="white" transform="translate(0.961548 0.583008)"/>
</clipPath>
</defs>
</svg>
