<svg width="25" height="25" viewBox="0 0 25 25" fill="none" xmlns="http://www.w3.org/2000/svg">
<g clip-path="url(#clip0_182_3931)">
<path d="M11.8378 11.0517C9.5605 10.4535 8.82816 9.83505 8.82816 8.87185C8.82816 7.76671 9.8414 6.99616 11.5368 6.99616C13.3225 6.99616 13.9846 7.85796 14.0448 9.12533H16.2619C16.1917 7.38144 15.1383 5.77949 13.0416 5.26241V3.04199H10.032V5.23199C8.08579 5.65783 6.52079 6.93533 6.52079 8.89213C6.52079 11.2342 8.43691 12.4002 11.2359 13.0795C13.7439 13.6878 14.2455 14.58 14.2455 15.523C14.2455 16.2225 13.7539 17.3378 11.5368 17.3378C9.47021 17.3378 8.65761 16.405 8.54726 15.2087H6.34021C6.46059 17.4291 8.10585 18.6762 10.032 19.0919V21.292H13.0416V19.1121C14.9979 18.737 16.5528 17.5913 16.5528 15.5128C16.5528 12.6334 14.115 11.6499 11.8378 11.0517Z" fill="white"/>
</g>
<defs>
<clipPath id="clip0_182_3931">
<rect width="24.0769" height="24.3333" fill="white"/>
</clipPath>
</defs>
</svg>
