<svg width="25" height="25" viewBox="0 0 25 25" fill="none" xmlns="http://www.w3.org/2000/svg">
<path d="M4.16667 20.2778V7.19861L2.21042 2.88958L4.01619 2.02777L6.37372 7.14791H18.0109L20.3684 2.02777L22.1742 2.88958L20.2179 7.19861V20.2778H4.16667ZM10.1859 13.1806H14.1987C14.483 13.1806 14.7212 13.0834 14.9135 12.8891C15.1058 12.6947 15.2019 12.4539 15.2019 12.1667C15.2019 11.8794 15.1058 11.6386 14.9135 11.4443C14.7212 11.2499 14.483 11.1528 14.1987 11.1528H10.1859C9.90166 11.1528 9.6634 11.2499 9.47112 11.4443C9.27883 11.6386 9.18269 11.8794 9.18269 12.1667C9.18269 12.4539 9.27883 12.6947 9.47112 12.8891C9.6634 13.0834 9.90166 13.1806 10.1859 13.1806ZM6.17308 18.25H18.2115V9.17569H6.17308V18.25Z" fill="#36393F"/>
</svg>
