<svg width="25" height="25" viewBox="0 0 25 25" fill="none" xmlns="http://www.w3.org/2000/svg">
<path d="M2.31409 19.2639V17.2361H12.3461V19.2639H2.31409ZM2.31409 14.1944V12.1667H7.33011V14.1944H2.31409ZM2.31409 9.125V7.09722H7.33011V9.125H2.31409ZM20.9737 19.2639L17.1114 15.3604C16.7101 15.6477 16.2712 15.8631 15.7947 16.0068C15.3181 16.1504 14.8374 16.2222 14.3525 16.2222C12.9648 16.2222 11.7818 15.7279 10.8037 14.7394C9.82559 13.7509 9.33652 12.5553 9.33652 11.1528C9.33652 9.75023 9.82559 8.55468 10.8037 7.56614C11.7818 6.5776 12.9648 6.08333 14.3525 6.08333C15.7403 6.08333 16.9233 6.5776 17.9014 7.56614C18.8795 8.55468 19.3686 9.75023 19.3686 11.1528C19.3686 11.6428 19.2975 12.1286 19.1554 12.6102C19.0133 13.0918 18.8001 13.5354 18.5159 13.941L22.3782 17.8444L20.9737 19.2639ZM14.3525 14.1944C15.1886 14.1944 15.8992 13.8987 16.4844 13.3073C17.0696 12.7159 17.3622 11.9977 17.3622 11.1528C17.3622 10.3079 17.0696 9.58969 16.4844 8.99826C15.8992 8.40682 15.1886 8.11111 14.3525 8.11111C13.5165 8.11111 12.8059 8.40682 12.2207 8.99826C11.6355 9.58969 11.3429 10.3079 11.3429 11.1528C11.3429 11.9977 11.6355 12.7159 12.2207 13.3073C12.8059 13.8987 13.5165 14.1944 14.3525 14.1944Z" fill="#36393F"/>
</svg>
