<svg width="25" height="25" viewBox="0 0 25 25" fill="none" xmlns="http://www.w3.org/2000/svg">
<g clip-path="url(#clip0_173_1390)">
<path d="M9.32373 11.7426C9.87779 11.7426 10.3269 11.2887 10.3269 10.7287C10.3269 10.1688 9.87779 9.71484 9.32373 9.71484C8.76968 9.71484 8.32053 10.1688 8.32053 10.7287C8.32053 11.2887 8.76968 11.7426 9.32373 11.7426Z" fill="#7C7C7C"/>
<path d="M15.343 11.7426C15.897 11.7426 16.3462 11.2887 16.3462 10.7287C16.3462 10.1688 15.897 9.71484 15.343 9.71484C14.7889 9.71484 14.3398 10.1688 14.3398 10.7287C14.3398 11.2887 14.7889 11.7426 15.343 11.7426Z" fill="#7C7C7C"/>
<path d="M6.09341 16.3056H6.53482C6.9662 16.3056 7.31732 15.9406 7.31732 15.4843V14.2778H17.3494V15.4843C17.3494 15.9406 17.6905 16.3056 18.1319 16.3056H18.5733C19.0047 16.3056 19.3558 15.9406 19.3558 15.4843V8.89403C19.3558 8.89403 18.0115 4.80806 17.7908 4.13889C17.7406 3.97667 17.6704 3.84486 17.6002 3.73333C17.5801 3.71306 17.5701 3.69278 17.55 3.66236C17.1688 3.13514 16.6271 3.125 16.6271 3.125H8.03963C8.03963 3.125 7.4979 3.13514 7.11668 3.6725C7.09662 3.69278 7.08659 3.71306 7.06652 3.73333C6.9963 3.84486 6.92607 3.97667 6.87591 4.13889C6.65521 4.80806 5.31091 8.89403 5.31091 8.89403V15.4843C5.31091 15.9406 5.66204 16.3056 6.09341 16.3056ZM8.65159 5.15278H16.0151L16.2458 5.85236L16.6772 7.18056H7.98947L8.65159 5.15278ZM7.31732 9.21847V9.20833H17.3494V9.21847V12.25H7.31732V9.21847Z" fill="#7C7C7C"/>
<path d="M4.30771 17.3291V19.3467H11.3301V22.3884H13.3366V19.3467H20.359V17.3291H4.30771Z" fill="#7C7C7C"/>
</g>
<defs>
<clipPath id="clip0_173_1390">
<rect width="24.0769" height="24.3333" fill="white" transform="translate(0.294891 0.0830078)"/>
</clipPath>
</defs>
</svg>
