<svg width="25" height="25" viewBox="0 0 25 25" fill="none" xmlns="http://www.w3.org/2000/svg">
<g clip-path="url(#clip0_177_2349)">
<path d="M15.6767 13.1806C16.4291 13.1806 17.0913 12.7649 17.4324 12.1362L21.0238 5.5561C21.395 4.88694 20.9135 4.05555 20.151 4.05555H5.3036L4.36059 2.02777H1.08011V4.05555H3.08652L6.69806 11.751L5.34373 14.2249C4.61139 15.5835 5.57447 17.2361 7.09934 17.2361H19.1378V15.2083H7.09934L8.20287 13.1806H15.6767ZM6.25665 6.08333H18.4456L15.6767 11.1528H8.63424L6.25665 6.08333ZM7.09934 18.25C5.99581 18.25 5.10296 19.1625 5.10296 20.2778C5.10296 21.3931 5.99581 22.3056 7.09934 22.3056C8.20286 22.3056 9.10575 21.3931 9.10575 20.2778C9.10575 19.1625 8.20286 18.25 7.09934 18.25ZM17.1314 18.25C16.0279 18.25 15.135 19.1625 15.135 20.2778C15.135 21.3931 16.0279 22.3056 17.1314 22.3056C18.2349 22.3056 19.1378 21.3931 19.1378 20.2778C19.1378 19.1625 18.2349 18.25 17.1314 18.25Z" fill="#36393F"/>
</g>
<defs>
<clipPath id="clip0_177_2349">
<rect width="24.0769" height="24.3333" fill="white" transform="translate(0.0769043)"/>
</clipPath>
</defs>
</svg>
