<svg width="25" height="24" viewBox="0 0 25 24" fill="none" xmlns="http://www.w3.org/2000/svg">
<g clip-path="url(#clip0_182_5276)">
<path d="M19.6154 3H5.61539C4.51539 3 3.61539 3.9 3.61539 5V12C3.61539 13.1 4.51539 14 5.61539 14H19.6154C20.7154 14 21.6154 13.1 21.6154 12V5C21.6154 3.9 20.7154 3 19.6154 3ZM5.61539 10H8.74539C8.95539 10.78 9.41539 11.47 10.0154 12H5.61539V10ZM19.6154 12H15.2154C15.8154 11.47 16.2754 10.78 16.4854 10H19.6154V12ZM19.6154 8H14.6154V9C14.6154 10.07 13.6854 11 12.6154 11C11.5454 11 10.6154 10.07 10.6154 9V8H5.61539V5H19.6154V8ZM17.6154 15H14.6154V16C14.6154 16.47 14.4254 16.9 14.1354 17.25C13.7654 17.7 13.2154 18 12.6154 18C12.0154 18 11.4654 17.7 11.0954 17.25C10.8054 16.9 10.6154 16.47 10.6154 16V15H3.61539V19C3.61539 20.1 4.51539 21 5.61539 21H19.6154C20.7154 21 21.6154 20.1 21.6154 19V15H17.6154ZM5.61539 17H8.74539C8.76539 17.09 8.80539 17.17 8.83539 17.25C9.07539 17.93 9.48539 18.53 10.0154 19H5.61539V17ZM19.6154 19H15.2154C15.7554 18.53 16.1654 17.93 16.3954 17.25C16.4254 17.17 16.4654 17.09 16.4854 17H19.6154V19Z" fill="#36393F"/>
</g>
<defs>
<clipPath id="clip0_182_5276">
<rect width="24" height="24" fill="white" transform="translate(0.615387)"/>
</clipPath>
</defs>
</svg>
