<svg width="120" height="29" viewBox="0 0 120 29" fill="none" xmlns="http://www.w3.org/2000/svg">
<path d="M1.808 0.872H26.224V4.808H1.808V0.872ZM4.016 11.176H23.664V15.08H4.016V11.176ZM0.016 22.024H27.92V25.928H0.016V22.024Z" fill="#8080FF"/>
<path d="M57.808 7.912V11.976H32.976V7.912H37.168V5.064H33.264V0.999998H57.52V5.064H53.616V7.912H57.808ZM42.544 5.064V7.912H48.24V5.064H42.544ZM59.216 17.32H48.08V18.76H57.616V28.328H33.168V18.76H42.704V17.32H31.568V13.224H59.216V17.32ZM52.272 24.36V22.728H38.512V24.36H52.272ZM88.0773 7.08H91.2133V12.168H88.0773V21.704H82.6693V0.999998H88.0773V7.08ZM74.0613 11.624V5.768H63.3733V1.192H79.4373V11.624H74.0613ZM81.1013 16.808C79.4053 17.544 76.6533 17.8 73.9333 17.8H62.3493V13.288H66.1253V8.232H71.4693V13.288H74.0293C76.5573 13.288 79.4053 13.032 81.1013 12.296V16.808ZM69.4213 19.72V23.72H88.4613V28.328H63.9493V19.72H69.4213ZM119.563 0.999998V28.328H114.155V0.999998H119.563ZM110.187 1.64V16.68H99.7225V22.184H105.643C108.235 22.184 111.051 21.64 112.715 20.872V25.736C111.051 26.568 108.139 27.048 105.419 27.048H94.3465V11.88H104.811V6.504H94.2825V1.64H110.187Z" fill="white"/>
</svg>
