<svg width="120" height="29" viewBox="0 0 120 29" fill="none" xmlns="http://www.w3.org/2000/svg">
<path d="M1.808 0.871511H26.224V4.80751H1.808V0.871511ZM4.016 11.1755H23.664V15.0795H4.016V11.1755ZM0.016 22.0235H27.92V25.9275H0.016V22.0235Z" fill="#8080FF"/>
<path d="M57.808 7.91151V11.9755H32.976V7.91151H37.168V5.06351H33.264V0.99951H57.52V5.06351H53.616V7.91151H57.808ZM42.544 5.06351V7.91151H48.24V5.06351H42.544ZM59.216 17.3195H48.08V18.7595H57.616V28.3275H33.168V18.7595H42.704V17.3195H31.568V13.2235H59.216V17.3195ZM52.272 24.3595V22.7275H38.512V24.3595H52.272ZM88.0773 7.07951H91.2133V12.1675H88.0773V21.7035H82.6693V0.99951H88.0773V7.07951ZM74.0613 11.6235V5.76751H63.3733V1.19151H79.4373V11.6235H74.0613ZM81.1013 16.8075C79.4053 17.5435 76.6533 17.7995 73.9333 17.7995H62.3493V13.2875H66.1253V8.23151H71.4693V13.2875H74.0293C76.5573 13.2875 79.4053 13.0315 81.1013 12.2955V16.8075ZM69.4213 19.7195V23.7195H88.4613V28.3275H63.9493V19.7195H69.4213ZM119.563 0.99951V28.3275H114.155V0.99951H119.563ZM110.187 1.63951V16.6795H99.7225V22.1835H105.643C108.235 22.1835 111.051 21.6395 112.715 20.8715V25.7355C111.051 26.5675 108.139 27.0475 105.419 27.0475H94.3465V11.8795H104.811V6.50351H94.2825V1.63951H110.187Z" fill="#36393F"/>
</svg>
