<svg width="26" height="25" viewBox="0 0 26 25" fill="none" xmlns="http://www.w3.org/2000/svg">
<path d="M4.97437 21.375C4.13836 21.375 3.42776 21.0793 2.84256 20.4879C2.25735 19.8964 1.96475 19.1782 1.96475 18.3333C1.96475 17.6743 2.15285 17.0829 2.52905 16.559C2.90526 16.0352 3.38596 15.6719 3.97116 15.4691V9.0309C3.38596 8.82813 2.90526 8.46482 2.52905 7.94097C2.15285 7.41713 1.96475 6.82569 1.96475 6.16667C1.96475 5.32176 2.25735 4.60359 2.84256 4.01215C3.42776 3.42072 4.13836 3.125 4.97437 3.125C5.81037 3.125 6.52098 3.42072 7.10618 4.01215C7.69138 4.60359 7.98398 5.32176 7.98398 6.16667C7.98398 6.82569 7.79588 7.41713 7.41968 7.94097C7.04348 8.46482 6.56278 8.82813 5.97757 9.0309V11.2361H11.9968V9.0309C11.4116 8.82813 10.9309 8.46482 10.5547 7.94097C10.1785 7.41713 9.99039 6.82569 9.99039 6.16667C9.99039 5.32176 10.283 4.60359 10.8682 4.01215C11.4534 3.42072 12.164 3.125 13 3.125C13.836 3.125 14.5466 3.42072 15.1318 4.01215C15.717 4.60359 16.0096 5.32176 16.0096 6.16667C16.0096 6.82569 15.8215 7.41713 15.4453 7.94097C15.0691 8.46482 14.5884 8.82813 14.0032 9.0309V11.2361H19.0192C19.3035 11.2361 19.5417 11.1389 19.734 10.9446C19.9263 10.7503 20.0224 10.5095 20.0224 10.2222V9.0309C19.4372 8.82813 18.9565 8.46482 18.5803 7.94097C18.2041 7.41713 18.016 6.82569 18.016 6.16667C18.016 5.32176 18.3086 4.60359 18.8938 4.01215C19.479 3.42072 20.1896 3.125 21.0256 3.125C21.8617 3.125 22.5723 3.42072 23.1575 4.01215C23.7427 4.60359 24.0353 5.32176 24.0353 6.16667C24.0353 6.82569 23.8472 7.41713 23.471 7.94097C23.0948 8.46482 22.6141 8.82813 22.0289 9.0309V10.2222C22.0289 11.0671 21.7363 11.7853 21.151 12.3767C20.5658 12.9682 19.8552 13.2639 19.0192 13.2639H14.0032V15.4691C14.5884 15.6719 15.0691 16.0352 15.4453 16.559C15.8215 17.0829 16.0096 17.6743 16.0096 18.3333C16.0096 19.1782 15.717 19.8964 15.1318 20.4879C14.5466 21.0793 13.836 21.375 13 21.375C12.164 21.375 11.4534 21.0793 10.8682 20.4879C10.283 19.8964 9.99039 19.1782 9.99039 18.3333C9.99039 17.6743 10.1785 17.0829 10.5547 16.559C10.9309 16.0352 11.4116 15.6719 11.9968 15.4691V13.2639H5.97757V15.4691C6.56278 15.6719 7.04348 16.0352 7.41968 16.559C7.79588 17.0829 7.98398 17.6743 7.98398 18.3333C7.98398 19.1782 7.69138 19.8964 7.10618 20.4879C6.52098 21.0793 5.81037 21.375 4.97437 21.375ZM4.97437 19.3472C5.25861 19.3472 5.49687 19.2501 5.68915 19.0557C5.88143 18.8614 5.97757 18.6206 5.97757 18.3333C5.97757 18.0461 5.88143 17.8053 5.68915 17.6109C5.49687 17.4166 5.25861 17.3194 4.97437 17.3194C4.69013 17.3194 4.45186 17.4166 4.25958 17.6109C4.0673 17.8053 3.97116 18.0461 3.97116 18.3333C3.97116 18.6206 4.0673 18.8614 4.25958 19.0557C4.45186 19.2501 4.69013 19.3472 4.97437 19.3472ZM4.97437 7.18056C5.25861 7.18056 5.49687 7.08339 5.68915 6.88906C5.88143 6.69473 5.97757 6.45394 5.97757 6.16667C5.97757 5.8794 5.88143 5.6386 5.68915 5.44427C5.49687 5.24994 5.25861 5.15278 4.97437 5.15278C4.69013 5.15278 4.45186 5.24994 4.25958 5.44427C4.0673 5.6386 3.97116 5.8794 3.97116 6.16667C3.97116 6.45394 4.0673 6.69473 4.25958 6.88906C4.45186 7.08339 4.69013 7.18056 4.97437 7.18056ZM13 19.3472C13.2842 19.3472 13.5225 19.2501 13.7148 19.0557C13.9071 18.8614 14.0032 18.6206 14.0032 18.3333C14.0032 18.0461 13.9071 17.8053 13.7148 17.6109C13.5225 17.4166 13.2842 17.3194 13 17.3194C12.7158 17.3194 12.4775 17.4166 12.2852 17.6109C12.0929 17.8053 11.9968 18.0461 11.9968 18.3333C11.9968 18.6206 12.0929 18.8614 12.2852 19.0557C12.4775 19.2501 12.7158 19.3472 13 19.3472ZM13 7.18056C13.2842 7.18056 13.5225 7.08339 13.7148 6.88906C13.9071 6.69473 14.0032 6.45394 14.0032 6.16667C14.0032 5.8794 13.9071 5.6386 13.7148 5.44427C13.5225 5.24994 13.2842 5.15278 13 5.15278C12.7158 5.15278 12.4775 5.24994 12.2852 5.44427C12.0929 5.6386 11.9968 5.8794 11.9968 6.16667C11.9968 6.45394 12.0929 6.69473 12.2852 6.88906C12.4775 7.08339 12.7158 7.18056 13 7.18056ZM21.0256 7.18056C21.3099 7.18056 21.5482 7.08339 21.7404 6.88906C21.9327 6.69473 22.0289 6.45394 22.0289 6.16667C22.0289 5.8794 21.9327 5.6386 21.7404 5.44427C21.5482 5.24994 21.3099 5.15278 21.0256 5.15278C20.7414 5.15278 20.5031 5.24994 20.3109 5.44427C20.1186 5.6386 20.0224 5.8794 20.0224 6.16667C20.0224 6.45394 20.1186 6.69473 20.3109 6.88906C20.5031 7.08339 20.7414 7.18056 21.0256 7.18056Z" fill="#7C7C7C"/>
</svg>
