<svg width="25" height="25" viewBox="0 0 25 25" fill="none" xmlns="http://www.w3.org/2000/svg">
<g clip-path="url(#clip0_173_1383)">
<path d="M20.1205 13.2429C20.1606 12.9184 20.1907 12.594 20.1907 12.2492C20.1907 11.9045 20.1606 11.5801 20.1205 11.2556L22.2373 9.58271C22.4279 9.43063 22.478 9.15688 22.3576 8.93382L20.3512 5.42577C20.2609 5.26355 20.0904 5.1723 19.9098 5.1723C19.8496 5.1723 19.7894 5.18244 19.7393 5.20271L17.2413 6.2166C16.7196 5.81105 16.1578 5.47646 15.5459 5.22299L15.1647 2.53619C15.1346 2.29285 14.9239 2.11035 14.6731 2.11035H10.6603C10.4095 2.11035 10.1988 2.29285 10.1687 2.53619L9.78747 5.22299C9.17552 5.47646 8.61372 5.82119 8.09206 6.2166L5.59408 5.20271C5.53389 5.18244 5.47369 5.1723 5.4135 5.1723C5.24296 5.1723 5.07241 5.26355 4.98212 5.42577L2.97571 8.93382C2.8453 9.15688 2.90549 9.43063 3.0961 9.58271L5.21286 11.2556C5.17273 11.5801 5.14264 11.9147 5.14264 12.2492C5.14264 12.5838 5.17273 12.9184 5.21286 13.2429L3.0961 14.9158C2.90549 15.0679 2.85533 15.3416 2.97571 15.5647L4.98212 19.0727C5.07241 19.2349 5.24296 19.3262 5.42353 19.3262C5.48373 19.3262 5.54392 19.316 5.59408 19.2958L8.09206 18.2819C8.61372 18.6874 9.17552 19.022 9.78747 19.2755L10.1687 21.9623C10.1988 22.2056 10.4095 22.3881 10.6603 22.3881H14.6731C14.9239 22.3881 15.1346 22.2056 15.1647 21.9623L15.5459 19.2755C16.1578 19.022 16.7196 18.6773 17.2413 18.2819L19.7393 19.2958C19.7995 19.316 19.8597 19.3262 19.9198 19.3262C20.0904 19.3262 20.2609 19.2349 20.3512 19.0727L22.3576 15.5647C22.478 15.3416 22.4279 15.0679 22.2373 14.9158L20.1205 13.2429ZM18.1341 11.5091C18.1743 11.8234 18.1843 12.0363 18.1843 12.2492C18.1843 12.4622 18.1642 12.6852 18.1341 12.9894L17.9937 14.1351L18.8865 14.8448L19.97 15.6965L19.2678 16.9233L17.9937 16.4062L16.9504 15.9804L16.0475 16.6698C15.6161 16.9942 15.2048 17.2376 14.7935 17.4099L13.7301 17.8459L13.5696 18.9916L13.3689 20.3604H11.9644L11.7738 18.9916L11.6133 17.8459L10.5499 17.4099C10.1185 17.2274 9.71725 16.9942 9.31597 16.6901L8.40305 15.9804L7.33965 16.4163L6.06558 16.9334L5.36334 15.7066L6.4468 14.8549L7.33965 14.1452L7.19921 12.9995C7.16911 12.6852 7.14904 12.452 7.14904 12.2492C7.14904 12.0465 7.16911 11.8133 7.19921 11.5091L7.33965 10.3634L6.4468 9.65369L5.36334 8.80202L6.06558 7.57521L7.33965 8.0923L8.38299 8.51813L9.28587 7.82869C9.71725 7.50424 10.1286 7.26091 10.5399 7.08855L11.6033 6.65257L11.7638 5.50688L11.9644 4.13813H13.3589L13.5495 5.50688L13.71 6.65257L14.7734 7.08855C15.2048 7.27105 15.6061 7.50424 16.0073 7.80841L16.9203 8.51813L17.9837 8.08216L19.2577 7.56507L19.96 8.79188L18.8865 9.65369L17.9937 10.3634L18.1341 11.5091ZM12.6667 8.19369C10.4496 8.19369 8.65385 10.0085 8.65385 12.2492C8.65385 14.4899 10.4496 16.3048 12.6667 16.3048C14.8838 16.3048 16.6795 14.4899 16.6795 12.2492C16.6795 10.0085 14.8838 8.19369 12.6667 8.19369ZM12.6667 14.277C11.5631 14.277 10.6603 13.3645 10.6603 12.2492C10.6603 11.134 11.5631 10.2215 12.6667 10.2215C13.7702 10.2215 14.6731 11.134 14.6731 12.2492C14.6731 13.3645 13.7702 14.277 12.6667 14.277Z" fill="#7C7C7C"/>
</g>
<defs>
<clipPath id="clip0_173_1383">
<rect width="24.0769" height="24.3333" fill="white" transform="translate(0.628204 0.0830078)"/>
</clipPath>
</defs>
</svg>
