<svg width="25" height="25" viewBox="0 0 25 25" fill="none" xmlns="http://www.w3.org/2000/svg">
<g clip-path="url(#clip0_173_1317)">
<path d="M19.4923 13.1603C19.5324 12.8358 19.5625 12.5114 19.5625 12.1667C19.5625 11.822 19.5324 11.4975 19.4923 11.1731L21.609 9.50015C21.7997 9.34807 21.8498 9.07432 21.7294 8.85126L19.723 5.3432C19.6327 5.18098 19.4622 5.08973 19.2816 5.08973C19.2214 5.08973 19.1612 5.09987 19.1111 5.12015L16.6131 6.13404C16.0914 5.72848 15.5296 5.3939 14.9177 5.14043L14.5364 2.45362C14.5064 2.21029 14.2957 2.02779 14.0449 2.02779H10.0321C9.78126 2.02779 9.57058 2.21029 9.54049 2.45362L9.15927 5.14043C8.54732 5.3939 7.98552 5.73862 7.46385 6.13404L4.96587 5.12015C4.90568 5.09987 4.84549 5.08973 4.7853 5.08973C4.61475 5.08973 4.44421 5.18098 4.35392 5.3432L2.34751 8.85126C2.21709 9.07432 2.27728 9.34807 2.46789 9.50015L4.58466 11.1731C4.54453 11.4975 4.51443 11.8321 4.51443 12.1667C4.51443 12.5013 4.54453 12.8358 4.58466 13.1603L2.46789 14.8332C2.27728 14.9853 2.22712 15.259 2.34751 15.4821L4.35392 18.9902C4.44421 19.1524 4.61475 19.2436 4.79533 19.2436C4.85552 19.2436 4.91571 19.2335 4.96587 19.2132L7.46385 18.1993C7.98552 18.6049 8.54732 18.9395 9.15927 19.1929L9.54049 21.8797C9.57058 22.1231 9.78126 22.3056 10.0321 22.3056H14.0449C14.2957 22.3056 14.5064 22.1231 14.5364 21.8797L14.9177 19.1929C15.5296 18.9395 16.0914 18.5947 16.6131 18.1993L19.1111 19.2132C19.1713 19.2335 19.2314 19.2436 19.2916 19.2436C19.4622 19.2436 19.6327 19.1524 19.723 18.9902L21.7294 15.4821C21.8498 15.259 21.7997 14.9853 21.609 14.8332L19.4923 13.1603ZM17.5059 11.4265C17.5461 11.7408 17.5561 11.9538 17.5561 12.1667C17.5561 12.3796 17.536 12.6026 17.5059 12.9068L17.3655 14.0525L18.2583 14.7622L19.3418 15.6139L18.6396 16.8407L17.3655 16.3236L16.3222 15.8978L15.4193 16.5872C14.9879 16.9117 14.5766 17.155 14.1653 17.3274L13.1019 17.7633L12.9414 18.909L12.7407 20.2778H11.3362L11.1456 18.909L10.9851 17.7633L9.92171 17.3274C9.49033 17.1449 9.08905 16.9117 8.68776 16.6075L7.77485 15.8978L6.71145 16.3338L5.43738 16.8508L4.73514 15.624L5.8186 14.7724L6.71145 14.0626L6.571 12.917C6.5409 12.6026 6.52084 12.3695 6.52084 12.1667C6.52084 11.9639 6.5409 11.7307 6.571 11.4265L6.71145 10.2808L5.8186 9.57112L4.73514 8.71945L5.43738 7.49265L6.71145 8.00973L7.75478 8.43556L8.65767 7.74612C9.08905 7.42168 9.50036 7.17834 9.91167 7.00598L10.9751 6.57001L11.1356 5.42431L11.3362 4.05556H12.7307L12.9213 5.42431L13.0818 6.57001L14.1452 7.00598C14.5766 7.18848 14.9779 7.42168 15.3791 7.72584L16.2921 8.43556L17.3555 7.99959L18.6295 7.48251L19.3318 8.70932L18.2583 9.57112L17.3655 10.2808L17.5059 11.4265ZM12.0385 8.11112C9.82139 8.11112 8.02565 9.92598 8.02565 12.1667C8.02565 14.4074 9.82139 16.2222 12.0385 16.2222C14.2556 16.2222 16.0513 14.4074 16.0513 12.1667C16.0513 9.92598 14.2556 8.11112 12.0385 8.11112ZM12.0385 14.1945C10.9349 14.1945 10.0321 13.282 10.0321 12.1667C10.0321 11.0514 10.9349 10.1389 12.0385 10.1389C13.142 10.1389 14.0449 11.0514 14.0449 12.1667C14.0449 13.282 13.142 14.1945 12.0385 14.1945Z" fill="#36393F"/>
</g>
<defs>
<clipPath id="clip0_173_1317">
<rect width="24.0769" height="24.3333" fill="white"/>
</clipPath>
</defs>
</svg>
